<svg width="70" height="70" viewBox="0 0 70 70" fill="none" xmlns="http://www.w3.org/2000/svg">
<rect width="70" height="70" rx="35" transform="matrix(-1 0 0 1 70 0)" fill="#F7F7F7"/>
<g clip-path="url(#clip0_178_5107)">
<path d="M27.3491 38.1212C28.1491 38.1212 28.8491 37.8545 29.4491 37.3212L30.8491 35.9212L32.3491 37.4212C32.5491 37.6212 32.7824 37.7212 33.0491 37.7212C33.3157 37.7212 33.5491 37.6212 33.7491 37.4212C33.9491 37.2212 34.0491 36.9879 34.0491 36.7212C34.0491 36.4545 33.9491 36.2212 33.7491 36.0212L31.4491 33.8212C31.3157 33.6212 31.0991 33.5212 30.7991 33.5212C30.4991 33.5212 30.2491 33.6212 30.0491 33.8212L27.9491 35.9212C27.6824 36.1212 27.3824 36.1545 27.0491 36.0212C26.7157 35.8879 26.5324 35.6712 26.4991 35.3712C26.4657 35.0712 26.5491 34.8212 26.7491 34.6212L28.8491 32.5212C29.0491 32.3212 29.1491 32.0879 29.1491 31.8212C29.1491 31.5545 29.0491 31.3212 28.8491 31.1212L26.2491 28.5212C26.0491 28.3212 25.8157 28.2212 25.5491 28.2212C25.2824 28.2212 25.0491 28.3212 24.8491 28.5212L23.6491 29.7212C23.4491 29.9212 23.2324 30.0212 22.9991 30.0212C22.7657 30.0212 22.5657 29.9379 22.3991 29.7712C22.2324 29.6045 22.1491 29.3879 22.1491 29.1212C22.1491 28.8545 22.2157 28.6545 22.3491 28.5212L23.6491 27.2212C23.8491 27.0879 23.9491 26.8712 23.9491 26.5712C23.9491 26.2712 23.8491 26.0212 23.6491 25.8212L22.7491 25.0212C22.4824 24.7545 22.3324 24.4045 22.2991 23.9712C22.2657 23.5379 22.4157 23.1712 22.7491 22.8712C23.0824 22.5712 23.4657 22.4379 23.8991 22.4712C24.3324 22.5045 24.6824 22.6879 24.9491 23.0212C25.1491 23.2212 25.3824 23.3045 25.6491 23.2712C25.9157 23.2379 26.1491 23.1212 26.3491 22.9212C26.5491 22.7212 26.6324 22.4879 26.5991 22.2212C26.5657 21.9545 26.4491 21.7212 26.2491 21.5212C25.5824 20.8545 24.7991 20.5212 23.8991 20.5212C22.9991 20.5212 22.1824 20.8379 21.4491 21.4712C20.7157 22.1045 20.3491 22.9212 20.3491 23.9212C20.3491 24.9212 20.6824 25.7545 21.3491 26.4212L21.5491 26.5212L20.9491 27.1212C20.4157 27.6545 20.1491 28.3212 20.1491 29.1212C20.1491 29.9212 20.4324 30.6045 20.9991 31.1712C21.5657 31.7379 22.2324 32.0212 22.9991 32.0212C23.7657 32.0212 24.4491 31.7212 25.0491 31.1212L25.5491 30.6212L26.7491 31.8212L25.3491 33.3212C24.8157 33.8545 24.5491 34.5212 24.5491 35.3212C24.5491 36.1212 24.8324 36.7879 25.3991 37.3212C25.9657 37.8545 26.6157 38.1212 27.3491 38.1212ZM27.4491 24.0212C27.6491 23.8212 27.8824 23.7212 28.1491 23.7212C28.4157 23.7212 28.6491 23.8212 28.8491 24.0212L39.6491 34.9212C40.9157 34.4545 42.2157 34.3379 43.5491 34.5712C44.8824 34.8045 46.0657 35.3379 47.0991 36.1712C48.1324 37.0045 48.9157 38.0545 49.4491 39.3212C49.9824 40.5879 50.1657 41.8712 49.9991 43.1712C49.8324 44.4712 49.3824 45.6712 48.6491 46.7712C47.9157 47.8712 46.9324 48.7212 45.6991 49.3212C44.4657 49.9212 43.1824 50.2045 41.8491 50.1712C40.5157 50.1379 39.2824 49.7712 38.1491 49.0712C37.0157 48.3712 36.1157 47.4379 35.4491 46.2712C34.7824 45.1045 34.4324 43.8545 34.3991 42.5212C34.3657 41.1879 34.6491 39.9379 35.2491 38.7712C35.8491 37.6045 36.6824 36.6212 37.7491 35.8212L27.4491 25.4212C27.2491 25.2212 27.1491 24.9879 27.1491 24.7212C27.1491 24.4545 27.2491 24.2212 27.4491 24.0212ZM36.4491 42.3212C36.4491 43.3879 36.6991 44.3712 37.1991 45.2712C37.6991 46.1712 38.4157 46.8879 39.3491 47.4212C40.2824 47.9545 41.2824 48.2212 42.3491 48.2212C43.4157 48.2212 44.3991 47.9545 45.2991 47.4212C46.1991 46.8879 46.8991 46.1712 47.3991 45.2712C47.8991 44.3712 48.1491 43.3879 48.1491 42.3212C48.1491 41.2545 47.8991 40.2712 47.3991 39.3712C46.8991 38.4712 46.1991 37.7545 45.2991 37.2212C44.3991 36.6879 43.4157 36.4212 42.3491 36.4212C41.2824 36.4212 40.2824 36.6879 39.3491 37.2212C38.4157 37.7545 37.6991 38.4712 37.1991 39.3712C36.6991 40.2712 36.4491 41.2545 36.4491 42.3212ZM44.1491 45.1212C44.3491 45.1879 44.5491 45.1545 44.7491 45.0212C44.9491 44.8879 45.0824 44.7212 45.1491 44.5212C45.2157 44.3212 45.2324 44.1212 45.1991 43.9212C45.1657 43.7212 45.0491 43.5545 44.8491 43.4212L43.9491 42.5212C43.6824 42.2545 43.3657 42.1545 42.9991 42.2212C42.6324 42.2879 42.3991 42.5045 42.2991 42.8712C42.1991 43.2379 42.2824 43.5545 42.5491 43.8212L43.4491 44.8212C43.6491 45.0212 43.8824 45.1212 44.1491 45.1212Z" fill="#181A20"/>
</g>
<defs>
<clipPath id="clip0_178_5107">
<rect width="30" height="30" fill="white" transform="matrix(-1 0 0 -1 50 50.3203)"/>
</clipPath>
</defs>
</svg>
