<svg width="70" height="70" viewBox="0 0 70 70" fill="none" xmlns="http://www.w3.org/2000/svg">
<rect width="70" height="70" rx="35" fill="#F7F7F7"/>
<path d="M47.2499 20.6895H30.75C30.3355 20.6895 30 21.0125 30 21.4117C30 21.8109 30.3355 22.134 30.75 22.134H45.4394L21.2197 45.4566C20.9268 45.7388 20.9268 46.1958 21.2197 46.4779C21.3662 46.6189 21.5582 46.6895 21.75 46.6895C21.9419 46.6895 22.1338 46.6189 22.2803 46.4779L46.5 23.1552V37.3005C46.5 37.6998 46.8355 38.0228 47.2499 38.0228C47.6645 38.0228 48 37.6998 48 37.3005V21.4117C48 21.0125 47.6645 20.6895 47.2499 20.6895Z" fill="#181A20"/>
</svg>
