<svg width="70" height="70" viewBox="0 0 70 70" fill="none" xmlns="http://www.w3.org/2000/svg">
<rect width="70" height="70" rx="35" transform="matrix(-1 0 0 1 70 0)" fill="#F7F7F7"/>
<path d="M24.2 40.3008L33 28.2008L31.8 24.5008C31.6 23.9674 31.6833 23.4508 32.05 22.9508C32.4167 22.4508 32.9 22.2008 33.5 22.2008H39.9C40.5 22.2008 40.9833 22.4508 41.35 22.9508C41.7167 23.4508 41.8 23.9674 41.6 24.5008L40.3 28.2008L49.2 40.3008C49.7333 41.0341 50 41.9008 50 42.9008V44.4008C50 45.6008 49.5667 46.6341 48.7 47.5008C47.8333 48.3674 46.8 48.8008 45.6 48.8008H27.8C26.6 48.8008 25.5667 48.3674 24.7 47.5008C23.8333 46.6341 23.4 45.6008 23.4 44.4008V42.9008C23.3333 41.9008 23.6 41.0341 24.2 40.3008ZM33.5 23.9008L34.7 27.5008H38.7L39.9 23.9008H33.5ZM25.2 44.4008C25.2 45.1341 25.45 45.7674 25.95 46.3008C26.45 46.8341 27.0667 47.1008 27.8 47.1008H45.6C46.3333 47.1008 46.9667 46.8341 47.5 46.3008C48.0333 45.7674 48.3 45.1341 48.3 44.4008V42.9008C48.2333 42.3008 48.0333 41.7674 47.7 41.3008L38.9 29.3008H34.5L25.7 41.3008C25.3 41.7674 25.1 42.3008 25.1 42.9008L25.2 44.4008ZM34 39.1008H38.5V37.6008H33.5V35.9008H35.8V34.6008H37.6V35.8008H39.4C39.6667 35.8674 39.8833 35.9841 40.05 36.1508C40.2167 36.3174 40.3 36.5008 40.3 36.7008V39.9008C40.3 40.1674 40.2167 40.3841 40.05 40.5508C39.8833 40.7174 39.6667 40.8008 39.4 40.8008H34.9V42.3008H39.9V44.0008H37.6V45.3008H35.8V44.0008H34C33.8 44.0008 33.6 43.9174 33.4 43.7508C33.2 43.5841 33.1 43.3674 33.1 43.1008V39.9008C33.1 39.7008 33.2 39.5174 33.4 39.3508C33.6 39.1841 33.8 39.1008 34 39.1008Z" fill="#181A20"/>
</svg>
