<svg width="50" height="50" viewBox="0 0 50 50" fill="none" xmlns="http://www.w3.org/2000/svg">
<circle cx="25" cy="25" r="25" fill="#181A20"/>
<path d="M27.155 8.78185L27.33 8.94585L40.402 21.7878L39 23.2138L37.2 21.4458L37.201 35.0008C37.201 36.0548 36.385 36.9188 35.35 36.9948L35.201 37.0008H15.201C14.147 37.0008 13.283 36.1848 13.206 35.1498L13.201 35.0008L13.2 21.4468L11.402 23.2138L10 21.7878L23.058 8.95885C24.171 7.82285 25.966 7.75985 27.155 8.78185ZM24.569 10.2858L24.473 10.3728L15.2 19.4818L15.201 35.0008L20.2 34.9998L20.201 25.0008C20.201 23.9468 21.017 23.0828 22.052 23.0058L22.201 23.0008H28.201C29.255 23.0008 30.119 23.8168 30.196 24.8518L30.201 25.0008L30.2 34.9998L35.201 35.0008L35.2 19.4808L25.901 10.3448C25.537 9.98785 24.969 9.96585 24.569 10.2858ZM28.201 25.0008H22.201L22.2 34.9998H28.2L28.201 25.0008Z" fill="white"/>
</svg>
