<svg width="24" height="24" viewBox="0 0 24 24" fill="none" xmlns="http://www.w3.org/2000/svg">
<g clip-path="url(#clip0_219_7432)">
<path d="M0.0627556 9.20577C0.220778 8.7198 0.651815 8.37574 1.15976 8.32978L8.08785 7.7008L10.8259 1.29054C11.028 0.819585 11.488 0.515625 12 0.515625C12.5119 0.515625 12.9721 0.819585 13.173 1.29054L15.911 7.7008L22.8402 8.32978C23.3481 8.37666 23.7782 8.72072 23.9372 9.20577C24.0952 9.69174 23.9493 10.2248 23.5651 10.5617L18.328 15.1539L19.8722 21.9549C19.9851 22.455 19.7911 22.9721 19.3761 23.272C19.1531 23.434 18.8911 23.515 18.6281 23.515C18.4022 23.515 18.176 23.4549 17.9741 23.3341L12 19.762L6.02697 23.3341C5.58879 23.5959 5.03782 23.5719 4.62381 23.272C4.20888 22.9721 4.01479 22.455 4.12777 21.9549L5.67192 15.1539L0.434832 10.5617C0.0508537 10.2248 -0.0952663 9.69284 0.0627556 9.20577Z" fill="#F8D254"/>
</g>
<defs>
<clipPath id="clip0_219_7432">
<rect width="24" height="24" fill="white" transform="matrix(-1 0 0 1 24 0)"/>
</clipPath>
</defs>
</svg>
