<svg width="22" height="22" viewBox="0 0 22 22" fill="none" xmlns="http://www.w3.org/2000/svg">
<path d="M0.61113 0H14.0555C14.3933 0 14.6667 0.268954 14.6667 0.601331C14.6667 0.933695 14.3933 1.20266 14.0555 1.20266H2.08637L21.8209 20.6206C22.0597 20.8556 22.0597 21.236 21.8209 21.4709C21.7016 21.5883 21.5452 21.6471 21.3889 21.6471C21.2325 21.6471 21.0762 21.5883 20.9568 21.4709L1.22218 2.05292V13.83C1.22218 14.1625 0.94883 14.4314 0.61113 14.4314C0.273291 14.4314 -5.91278e-05 14.1625 -5.91278e-05 13.83V0.601331C-5.91278e-05 0.268954 0.273291 0 0.61113 0Z" fill="white"/>
</svg>
