<svg width="15" height="15" viewBox="0 0 15 15" fill="none" xmlns="http://www.w3.org/2000/svg">
<path d="M3.30665 -2.19345e-05H7.57331C8.17776 -2.19345e-05 8.72887 0.1422 9.22665 0.426645C9.72442 0.71109 10.1244 1.11109 10.4266 1.62665C10.7289 2.1422 10.88 2.7022 10.88 3.30665H11.84C12.48 3.30665 13.0311 3.53776 13.4933 3.99998C13.9555 4.4622 14.1866 5.01331 14.1866 5.65331V7.09331C14.1866 7.23553 14.1422 7.35109 14.0533 7.43998C13.9644 7.52887 13.8489 7.57331 13.7066 7.57331H7.09331C6.95109 7.57331 6.83553 7.52887 6.74665 7.43998C6.65776 7.35109 6.61331 7.23553 6.61331 7.09331V5.65331C6.61331 5.01331 6.84442 4.4622 7.30665 3.99998C7.76887 3.53776 8.31998 3.30665 8.95998 3.30665H9.91998C9.91998 2.66665 9.68887 2.11553 9.22665 1.65331C8.76442 1.19109 8.21331 0.942201 7.57331 0.906645H3.30665C2.66665 0.942201 2.11553 1.19109 1.65331 1.65331C1.19109 2.11553 0.942201 2.66665 0.906645 3.30665V13.7066H-2.19345e-05V3.30665C-2.19345e-05 2.7022 0.1422 2.1422 0.426645 1.62665C0.71109 1.11109 1.11109 0.71109 1.62665 0.426645C2.1422 0.1422 2.7022 -2.19345e-05 3.30665 -2.19345e-05ZM9.01331 4.26665C8.6222 4.26665 8.28442 4.39998 7.99998 4.66665C7.71553 4.93331 7.57331 5.2622 7.57331 5.65331V6.61331H13.28V5.65331C13.28 5.2622 13.1378 4.93331 12.8533 4.66665C12.5689 4.39998 12.2311 4.26665 11.84 4.26665H9.01331ZM13.7066 9.01331H12.8V12.32H13.7066V9.01331ZM11.84 9.01331H10.88V10.4H11.84V9.01331ZM11.84 11.84H10.88V13.7066H11.84V11.84ZM9.91998 9.01331H9.01331V11.36H9.91998V9.01331ZM9.91998 12.32H9.01331V13.2266H9.91998V12.32ZM8.05331 9.01331H7.09331V10.4H8.05331V9.01331ZM8.05331 11.36H7.09331V14.1866H8.05331V11.36Z" fill="#181A20"/>
</svg>
