<svg width="10" height="13" viewBox="0 0 10 13" fill="none" xmlns="http://www.w3.org/2000/svg">
<path d="M0.0310946 6.07994C0.0933161 5.89327 0.217761 5.79994 0.404428 5.79994H2.69109L2.03776 0.479941C2.00665 0.293275 2.07665 0.153275 2.24776 0.0599413C2.41887 -0.033392 2.58221 -0.0178356 2.73776 0.106608L8.9911 5.89327C9.11554 6.04883 9.14665 6.21216 9.08443 6.38327C9.02221 6.55439 8.89776 6.63994 8.7111 6.63994H6.42443L7.07776 11.9599C7.10887 12.1466 7.03887 12.2866 6.86776 12.3799C6.69665 12.4733 6.53332 12.4577 6.37776 12.3333L0.124428 6.49994C-1.71661e-05 6.3755 -0.0311279 6.2355 0.0310946 6.07994ZM6.09776 10.9333L5.53776 6.26661C5.50665 6.14216 5.53776 6.03327 5.63109 5.93994C5.72443 5.84661 5.83332 5.79994 5.95776 5.79994H7.68443L3.01776 1.50661L3.57776 6.17327C3.60887 6.29772 3.57776 6.40661 3.48443 6.49994C3.39109 6.59327 3.28221 6.63994 3.15776 6.63994H1.43109L6.09776 10.9333Z" fill="white"/>
</svg>
