<svg width="15" height="13" viewBox="0 0 15 13" fill="none" xmlns="http://www.w3.org/2000/svg">
<path d="M0.373312 7.09329L0.479979 7.03996V2.39996C0.479979 1.75996 0.711089 1.19996 1.17331 0.719957C1.63553 0.239958 2.18665 -4.29153e-05 2.82664 -4.29153e-05H11.36C12 -4.29153e-05 12.5511 0.239958 13.0133 0.719957C13.4755 1.19996 13.7066 1.75996 13.7066 2.39996V7.03996L13.76 7.09329C14.0444 7.37774 14.1866 7.71551 14.1866 8.10662V11.8933C14.1866 12 14.1422 12.1066 14.0533 12.2133C13.9644 12.32 13.8489 12.3733 13.7066 12.3733H11.36C11.1822 12.3733 11.0578 12.3022 10.9866 12.16L10.1333 10.9333H3.99998L3.19998 12.16C3.12887 12.3022 3.00442 12.3733 2.82664 12.3733H0.426645C0.319979 12.3733 0.2222 12.32 0.133312 12.2133C0.0444231 12.1066 -2.19345e-05 12 -2.19345e-05 11.8933V8.10662C-2.19345e-05 7.71551 0.124423 7.37774 0.373312 7.09329ZM11.36 0.959957H2.82664C2.43553 0.959957 2.09776 1.10218 1.81331 1.38662C1.52887 1.67107 1.38665 2.00885 1.38665 2.39996V5.22662C1.59998 4.94218 1.87553 4.71107 2.21331 4.53329C2.55109 4.35551 2.91553 4.2844 3.30665 4.31996H10.88C11.5555 4.2844 12.1066 4.49774 12.5333 4.95996L12.8 5.27996V2.39996C12.8 2.00885 12.6578 1.67107 12.3733 1.38662C12.0889 1.10218 11.7511 0.959957 11.36 0.959957ZM1.86664 6.66662H12.32C12.32 6.27551 12.1778 5.93774 11.8933 5.65329C11.6089 5.36885 11.2711 5.22662 10.88 5.22662H3.30665C2.91553 5.22662 2.57776 5.36885 2.29331 5.65329C2.00887 5.93774 1.86664 6.27551 1.86664 6.66662ZM0.906645 11.4133H2.55998L3.35998 10.1866C3.46665 10.0444 3.60887 9.97329 3.78664 9.97329H10.4C10.5778 9.97329 10.72 10.0444 10.8266 10.1866L11.6266 11.4133H13.28V8.10662C13.28 7.9644 13.2266 7.84885 13.12 7.75996C13.0133 7.67107 12.9066 7.62662 12.8 7.62662H1.38665C1.27998 7.62662 1.17331 7.67107 1.06665 7.75996C0.959978 7.84885 0.906645 7.9644 0.906645 8.10662V11.4133Z" fill="#181A20"/>
</svg>
