<svg width="15" height="15" viewBox="0 0 15 15" fill="none" xmlns="http://www.w3.org/2000/svg">
<path d="M8.53331 -2.19345e-05H5.65331V0.906645H8.53331V-2.19345e-05ZM0.906645 12.8C0.906645 12.9066 0.959978 13.0133 1.06665 13.12C1.17331 13.2266 1.27998 13.28 1.38665 13.28H3.30665V14.1866H1.38665C0.995534 14.1866 0.666645 14.0533 0.399979 13.7866C0.133312 13.52 -2.19345e-05 13.1911 -2.19345e-05 12.8V10.88H0.906645V12.8ZM1.38665 -2.19345e-05H3.30665V0.906645H1.38665C1.27998 0.906645 1.17331 0.959978 1.06665 1.06665C0.959978 1.17331 0.906645 1.27998 0.906645 1.38665V3.30665H-2.19345e-05V1.38665C-2.19345e-05 0.995534 0.133312 0.666645 0.399979 0.399979C0.666645 0.133312 0.995534 -2.19345e-05 1.38665 -2.19345e-05ZM13.28 1.38665C13.28 1.27998 13.2266 1.17331 13.12 1.06665C13.0133 0.959978 12.9066 0.906645 12.8 0.906645H10.88V-2.19345e-05H12.8C13.1911 -2.19345e-05 13.52 0.133312 13.7866 0.399979C14.0533 0.666645 14.1866 0.995534 14.1866 1.38665V3.30665H13.28V1.38665ZM0.906645 5.65331H-2.19345e-05V8.53331H0.906645V5.65331ZM3.30665 6.61331V3.78664C3.30665 3.64442 3.35109 3.52887 3.43998 3.43998C3.52887 3.35109 3.64442 3.30665 3.78664 3.30665H6.61331V4.26665H4.90664L7.41331 6.77331C7.62665 6.66665 7.83998 6.61331 8.05331 6.61331H12.8C12.9422 6.61331 13.1022 6.64887 13.28 6.71998V5.65331H14.1866V12.8C14.1866 13.1911 14.0533 13.52 13.7866 13.7866C13.52 14.0533 13.1911 14.1866 12.8 14.1866H5.65331V13.28H6.71998C6.64887 13.1022 6.61331 12.9422 6.61331 12.8V8.05331C6.61331 7.83998 6.66665 7.62665 6.77331 7.41331L4.26665 4.90664V6.61331H3.30665ZM12.8 13.28C12.9066 13.28 13.0133 13.2266 13.12 13.12C13.2266 13.0133 13.28 12.9066 13.28 12.8V8.05331C13.28 7.91109 13.2266 7.79553 13.12 7.70665C13.0133 7.61776 12.9066 7.57331 12.8 7.57331H8.05331C7.91109 7.57331 7.79553 7.61776 7.70665 7.70665C7.61776 7.79553 7.57331 7.91109 7.57331 8.05331V12.8C7.57331 12.9066 7.61776 13.0133 7.70665 13.12C7.79553 13.2266 7.91109 13.28 8.05331 13.28H12.8Z" fill="#181A20"/>
</svg>
