<svg width="18" height="18" viewBox="0 0 18 18" fill="none" xmlns="http://www.w3.org/2000/svg">
<path d="M17.64 16.98L13.56 12.84C14.44 11.8 15.01 10.62 15.27 9.30002C15.53 7.98002 15.46 6.67002 15.06 5.37002C14.66 4.07002 13.95 2.96002 12.93 2.04002C11.91 1.12002 10.74 0.500017 9.42001 0.180017C8.10001 -0.139982 6.79001 -0.119982 5.49001 0.240019C4.19001 0.600018 3.05001 1.27002 2.07001 2.25002C1.09001 3.23002 0.420007 4.37002 0.0600065 5.67002C-0.299993 6.97002 -0.319994 8.28002 6.49691e-06 9.60002C0.320006 10.92 0.940006 12.09 1.86001 13.11C2.78001 14.13 3.89001 14.84 5.19001 15.24C6.49001 15.64 7.80001 15.71 9.12001 15.45C10.44 15.19 11.64 14.62 12.72 13.74L16.8 17.82C16.92 17.94 17.06 17.99 17.22 17.97C17.38 17.95 17.51 17.89 17.61 17.79C17.71 17.69 17.77 17.56 17.79 17.4C17.81 17.24 17.76 17.1 17.64 16.98ZM1.02001 7.80002C1.02001 6.60002 1.32001 5.50002 1.92001 4.50002C2.52001 3.50002 3.32001 2.70002 4.32001 2.10002C5.32001 1.50002 6.42001 1.20002 7.62001 1.20002C8.82001 1.20002 9.92001 1.50002 10.92 2.10002C11.92 2.70002 12.72 3.50002 13.32 4.50002C13.92 5.50002 14.22 6.60002 14.22 7.80002C14.22 9.00002 13.92 10.1 13.32 11.1C12.72 12.1 11.92 12.9 10.92 13.5C9.92001 14.1 8.82001 14.4 7.62001 14.4C6.42001 14.4 5.32001 14.1 4.32001 13.5C3.32001 12.9 2.52001 12.1 1.92001 11.1C1.32001 10.1 1.02001 9.00002 1.02001 7.80002Z" fill="white"/>
</svg>
